# xmcd CD database file
#
# Track frame offsets:
#	150
#	25575
#	47900
#	73250
#
# Disc length: 1271 seconds
#
# Revision: 0
# Processed by: cddbd v1.5PL3 Copyright (c) Steve Scherf et al.
# Submitted via: CDex 1.50
#
DISCID=3104f504
DTITLE=EMYLI - Someday
DYEAR=2003
DGENRE=Japanese Pop
TTITLE0=Someday
TTITLE1=Say Googbye To Love
TTITLE2=Someday (instrumental)
TTITLE3=Say Googbye To Love (instrumental)
EXTD=YEAR: 2003
EXTT0=
EXTT1=
EXTT2=
EXTT3=
PLAYORDER=
